<svg xmlns="http://www.w3.org/2000/svg" viewBox="0 0 539.55 116.29"><title>appstore-icon</title><g id="Layer_2" data-name="Layer 2"><g id="Layer_1-2" data-name="Layer 1"><path d="M49.15,7.87C45.69,11.77,42.65,18,43.46,24c6,.45,12.15-3,15.89-7.36S65.61,6.09,64.93,0C59.54.21,53,3.48,49.15,7.87Z"/><path d="M72.84,55.24C72.7,42.07,83.9,35.76,84.4,35.44c-6.29-8.93-16.09-10.16-19.58-10.3-8.34-.82-16.28,4.77-20.51,4.77s-10.75-4.65-17.67-4.52a26.35,26.35,0,0,0-22.16,13C-5,54.33,2.07,77.89,11.27,90.8c4.5,6.31,9.86,13.4,16.91,13.15,6.78-.26,9.34-4.26,17.54-4.26S56.23,104,63.4,103.82s11.93-6.44,16.39-12.77a56.74,56.74,0,0,0,7.42-14.78C87.05,76.19,73,71,72.84,55.24Z"/><path d="M157.85,75.45H127l-7.79,22.2H109.05L137.64,20.1h9.57L175.8,97.65H165.64Zm-28-8.22H155L142.59,31.87h-.33Z"/><path d="M232.07,69.7c0,17.52-9.62,28.91-23.7,28.91-8,0-14.46-3.92-17.79-10h-.21v27.73H181V41.75h8.86v9.46h.22a20.07,20.07,0,0,1,18.05-10.42C222.4,40.79,232.07,52.18,232.07,69.7Zm-9.57,0c0-12.63-6.23-20.69-16.17-20.69-9.57,0-16,8.28-16,20.69s6.45,20.69,16,20.69C216.27,90.39,222.5,82.38,222.5,69.7Z"/><path d="M290.33,69.7c0,17.52-9.62,28.91-23.7,28.91-8,0-14.46-3.92-17.79-10h-.22v27.73h-9.35V41.75h8.87v9.46h.22a20.07,20.07,0,0,1,18.05-10.42C280.66,40.79,290.33,52.18,290.33,69.7Zm-9.57,0c0-12.63-6.23-20.69-16.17-20.69-9.57,0-16,8.28-16,20.69s6.45,20.69,16,20.69C274.53,90.39,280.76,82.38,280.76,69.7Z"/><path d="M322.27,76.85c1.12,8.33,8.86,13.38,20,13.38,10.53,0,18.16-5.54,18.16-13.17,0-6.5-4.3-10.8-15.05-13.16L336.78,62c-15.54-3.39-22.25-10.43-22.25-21.45,0-12.79,11.28-21.76,27.35-21.76,15.48,0,26.66,9.24,27.09,22.41h-9.68c-.86-8.49-7.57-13.71-17.68-13.71-9.67,0-17.14,4.73-17.14,12.63,0,6.13,4.14,10.32,14.72,12.63l8.6,1.88c16.18,3.55,22.57,10,22.57,21,0,14.35-11.28,23.33-28.64,23.33-16.93,0-28.21-8.71-29.13-22.09Z"/><path d="M390.36,28.27V41.75h10.85v7.69H390.36V82.65c0,5.11,2.15,7.42,6.93,7.42a35.52,35.52,0,0,0,3.87-.27v7.85a34.19,34.19,0,0,1-5.91.43C385,98.08,381,93.88,381,83.14V49.44h-8.33V41.75H381V28.27Z"/><path d="M404.6,69.7c0-17.84,10.43-28.91,25.91-28.91s25.85,11.07,25.85,28.91-10.43,28.91-25.85,28.91S404.6,87.49,404.6,69.7Zm42.24,0c0-13.17-6.44-20.69-16.33-20.69s-16.39,7.52-16.39,20.69,6.5,20.69,16.39,20.69S446.84,82.87,446.84,69.7Z"/><path d="M463.56,41.75h8.81v9.14h.22a13.69,13.69,0,0,1,13.54-10.1,25.2,25.2,0,0,1,3.76.37v9.09a18.69,18.69,0,0,0-5-.54c-7.26,0-12,5.21-12,13.11V97.65h-9.35Z"/><path d="M538.85,81.63c-1.61,9.78-11.07,17-23.27,17-16,0-25.74-11.12-25.74-28.69,0-17.36,9.89-29.13,25.32-29.13,15.1,0,24.39,11,24.39,27.89v3.55H499.46v.53c0,10.7,6.29,17.74,16.34,17.74,7.09,0,12.31-3.6,13.86-8.87ZM499.52,64.92h30.36c-.22-9.35-6.07-16-14.89-16S500.11,55.62,499.52,64.92Z"/></g></g></svg>