<svg xmlns="http://www.w3.org/2000/svg" xmlns:xlink="http://www.w3.org/1999/xlink" width="1078.492" height="586.824" viewBox="0 0 1078.492 586.824">
  <defs>
    <clipPath id="clip-path">
      <path id="Clip_5" data-name="Clip 5" d="M0,0H1078.492V586.824H0Z" transform="translate(0.5 0.081)" fill="none"/>
    </clipPath>
  </defs>
  <g id="Group_6" data-name="Group 6" transform="translate(-0.5 -0.081)">
    <path id="Clip_5-2" data-name="Clip 5" d="M0,0H1078.492V586.824H0Z" transform="translate(0.5 0.081)" fill="none"/>
    <g id="Group_6-2" data-name="Group 6" clip-path="url(#clip-path)">
      <path id="Fill_4" data-name="Fill 4" d="M140.925,15.777C46.615,53.936-5.173,135.552.409,227.969c5.953,98.587,106.577,155.068,186.733,152.69,91.553-2.721,138.053-36.086,200.224-17.678s35.329,120.977,145.143,133.26c109.417,12.238,132.541,98.383,267.714,90.012,132-8.176,225.514-80.93,228.207-188.021,2.88-114.452-63.32-148.358-40.271-211.525,20.135-55.178,73.532-49.321,85.279-102.222s-.667-84.352-.667-84.352H237.305s-51.176-2.646-96.38,15.644" transform="translate(0.5 0.081)" fill="#e0edfc"/>
    </g>
  </g>
</svg>
