<svg xmlns="http://www.w3.org/2000/svg" width="54.547" height="47.522" viewBox="0 0 54.547 47.522">
  <g id="PIXO_icon" data-name="PIXO icon" transform="translate(-0.991 -0.987)">
    <g id="Layer_2-2">
      <g id="Group_12_Copy_4">
        <g id="Group_3" transform="translate(6)">
          <path id="Clip_2-2" d="M0,0H21V35.83H0Z" transform="translate(1 1)" fill="none"/>
          <g id="Group_3-2">
            <path id="Fill_1" d="M21.014.733v28.85a.74.74,0,0,1-.52.7L.874,35.813a.72.72,0,0,1-.81-1L19.724.373a.7.7,0,0,1,1-.26.69.69,0,0,1,.29.62" transform="translate(0.986 0.987)" fill="#2238bc"/>
          </g>
        </g>
        <path id="Fill_4" d="M0,.711v22.14a.74.74,0,0,0,.74.73,1.25,1.25,0,0,0,.19,0l12.28-3.42a.72.72,0,0,0,.51-.89,1,1,0,0,0-.09-.21L1.36.321a.74.74,0,0,0-1-.21.73.73,0,0,0-.33.6" transform="translate(30.93 7.039)" fill="#f362aa"/>
        <g id="Group_8" transform="translate(0 26)">
          <path id="Clip_7-2" d="M0,0H54.53V21.63H0Z" transform="translate(1 0.88)" fill="none"/>
          <g id="Group_8-2">
            <path id="Fill_6" d="M46.239,21.635H3.429a.72.72,0,0,1-.64-.38l-2.7-5.23a.73.73,0,0,1,.31-1h.13l53.1-15a.72.72,0,0,1,.88.5.69.69,0,0,1,0,.45l-7.59,20.2a.7.7,0,0,1-.66.46" transform="translate(0.991 0.875)" fill="#2238bc"/>
          </g>
        </g>
      </g>
    </g>
  </g>
</svg>
