<svg xmlns="http://www.w3.org/2000/svg" width="59.392" height="63.811" viewBox="0 0 59.392 63.811">
  <g id="Global_Pixo" data-name="Global Pixo" transform="translate(-0.014 -0.007)">
    <g id="Layer_2-2">
      <path id="Path" d="M29.169,25.24a25.06,25.06,0,0,1-3.09,12.1c-2.57-.38-3.55-4.18-9.24-4.65-9.8-.76-14.25,1.94-16.31-3.59-3.11-8.23,8.48-11.68,9.3-19.11.67-5.88-5.67-8-7.49-9.94.52,0,1.05-.05,1.58-.05a25.13,25.13,0,0,1,17.67,7.22,7.42,7.42,0,0,0-3.21,7.63,7.56,7.56,0,0,0,8.86,6,6.8,6.8,0,0,0,1.46-.43A24.9,24.9,0,0,1,29.169,25.24Z" transform="translate(26.701 8.04)" fill="#fff"/>
      <path id="Path-2" data-name="Path" d="M12.743,31.824A25.24,25.24,0,0,1,1.113,2.494h0c2.16-2.06,4.89-3.85,6-1.06.97,2.19-4.07,3.45-3.08,7.19,1.25,4.62,9.6.23,11.74,5.39a6,6,0,0,1,.34,1.17C17.323,21.354,9.153,25.384,12.743,31.824Z" transform="translate(5.367 23.376)" fill="#fff"/>
      <path id="Path-3" data-name="Path" d="M46.27,37.29A25.22,25.22,0,0,1,11.6,47.11c-3.59-6.44,4.58-10.47,3.37-16.68a6,6,0,0,0-.34-1.17c-2.14-5.16-10.49-.77-11.74-5.35-1-3.7,4-4.93,3.11-7.16-1.14-2.79-3.87-1-6,1.06A25.28,25.28,0,0,1,22.49,0c1.86,1.91,8.2,4.06,7.53,9.91-.82,7.43-12.41,10.88-9.3,19.11,2.06,5.53,6.51,2.83,16.31,3.59C42.72,33.11,43.7,36.91,46.27,37.29Z" transform="translate(6.51 8.09)" fill="#2238bc"/>
      <path id="Path-4" data-name="Path" d="M10.459,13.2A6.8,6.8,0,0,1,9,13.63a7.56,7.56,0,0,1-8.86-6A7.42,7.42,0,0,1,3.349,0a25.13,25.13,0,0,1,7.11,13.2Z" transform="translate(44.941 15.24)" fill="#2238bc"/>
      <path id="Path-5" data-name="Path" d="M57.456,20.653a52.12,52.12,0,0,1-2.54,5.79,82.32,82.32,0,0,1-12,17.23,81.24,81.24,0,0,1-16.7,14.46,51.3,51.3,0,0,1-4.58,2.6,25.87,25.87,0,0,1-11.1,3.07,10.36,10.36,0,0,1-7.13-2.47c-5.73-5.08-3.68-15.29,2.07-25.77a25.07,25.07,0,0,0,2.56,9l-1.83,8.13a5.32,5.32,0,0,0,1.3,4c1.75,1.56,5.9,1,10.89-1.35l.43-.21c6.29-3.09,13.16-8.65,19.41-15.59s10.75-14.08,13.19-20.55c.07-.15.12-.31.18-.46,2-5.44,2.1-9.81.29-11.43a4.47,4.47,0,0,0-3-.88,20.13,20.13,0,0,0-8.33,2.44,14.681,14.681,0,0,0-1.58.8,25.41,25.41,0,0,0-8.4-1.42h-.88a54.9,54.9,0,0,1,8.08-5c7.87-3.85,14.35-4.05,18.26-.58S60.456,12.423,57.456,20.653Z" transform="translate(0.014 0.007)" fill="#f362aa"/>
    </g>
  </g>
</svg>
