<svg xmlns="http://www.w3.org/2000/svg" width="1405" height="772" viewBox="0 0 1405 772" id="el_4I3zceq80"><style>@-webkit-keyframes kf_el_HQNz9c2s6s_an_owaf-vGkU{0%{-webkit-transform: translate(1277.1500244140625px, 185.75px) rotate(5deg) translate(-1277.1500244140625px, -185.75px);transform: translate(1277.1500244140625px, 185.75px) rotate(5deg) translate(-1277.1500244140625px, -185.75px);}25%{-webkit-transform: translate(1277.1500244140625px, 185.75px) rotate(15deg) translate(-1277.1500244140625px, -185.75px);transform: translate(1277.1500244140625px, 185.75px) rotate(15deg) translate(-1277.1500244140625px, -185.75px);}50%{-webkit-transform: translate(1277.1500244140625px, 185.75px) rotate(5deg) translate(-1277.1500244140625px, -185.75px);transform: translate(1277.1500244140625px, 185.75px) rotate(5deg) translate(-1277.1500244140625px, -185.75px);}75%{-webkit-transform: translate(1277.1500244140625px, 185.75px) rotate(15deg) translate(-1277.1500244140625px, -185.75px);transform: translate(1277.1500244140625px, 185.75px) rotate(15deg) translate(-1277.1500244140625px, -185.75px);}100%{-webkit-transform: translate(1277.1500244140625px, 185.75px) rotate(5deg) translate(-1277.1500244140625px, -185.75px);transform: translate(1277.1500244140625px, 185.75px) rotate(5deg) translate(-1277.1500244140625px, -185.75px);}}@keyframes kf_el_HQNz9c2s6s_an_owaf-vGkU{0%{-webkit-transform: translate(1277.1500244140625px, 185.75px) rotate(5deg) translate(-1277.1500244140625px, -185.75px);transform: translate(1277.1500244140625px, 185.75px) rotate(5deg) translate(-1277.1500244140625px, -185.75px);}25%{-webkit-transform: translate(1277.1500244140625px, 185.75px) rotate(15deg) translate(-1277.1500244140625px, -185.75px);transform: translate(1277.1500244140625px, 185.75px) rotate(15deg) translate(-1277.1500244140625px, -185.75px);}50%{-webkit-transform: translate(1277.1500244140625px, 185.75px) rotate(5deg) translate(-1277.1500244140625px, -185.75px);transform: translate(1277.1500244140625px, 185.75px) rotate(5deg) translate(-1277.1500244140625px, -185.75px);}75%{-webkit-transform: translate(1277.1500244140625px, 185.75px) rotate(15deg) translate(-1277.1500244140625px, -185.75px);transform: translate(1277.1500244140625px, 185.75px) rotate(15deg) translate(-1277.1500244140625px, -185.75px);}100%{-webkit-transform: translate(1277.1500244140625px, 185.75px) rotate(5deg) translate(-1277.1500244140625px, -185.75px);transform: translate(1277.1500244140625px, 185.75px) rotate(5deg) translate(-1277.1500244140625px, -185.75px);}}#el_4I3zceq80 *{-webkit-animation-duration: 6s;animation-duration: 6s;-webkit-animation-iteration-count: infinite;animation-iteration-count: infinite;-webkit-animation-timing-function: cubic-bezier(0, 0, 1, 1);animation-timing-function: cubic-bezier(0, 0, 1, 1);}#el_ZUy-uxrh4R{fill: #FFFFFF;}#el_Gckx4FexfE{fill: #FFFFFF;}#el_BZidnmxKWz{fill: #FFFFFF;}#el_1sdJyD-TlI{fill: #FFFFFF;}#el_UB_qMj8PqH{fill: #FFFFFF;}#el_0jHejE_0uF{fill: #FFFFFF;}#el_IbNZQA0o3g{fill: #FFFFFF;}#el_QKFHBoX4Ih{fill: #FFFFFF;}#el_9ckedo05N_{fill: none;stroke: #41449D;stroke-linecap: round;stroke-miterlimit: 10;}#el_hFj6vdJGhX{fill: none;stroke: #41449D;stroke-linecap: round;stroke-miterlimit: 10;}#el_Hdbq7RuI5H{fill: none;stroke: #41449D;stroke-linecap: round;stroke-miterlimit: 10;}#el_c1bq-idaGu_{fill: none;stroke: #41449D;stroke-linecap: round;stroke-miterlimit: 10;}#el_atut9wX8DBQ{fill: none;stroke: #41449D;stroke-linecap: round;stroke-miterlimit: 10;}#el_cxz3rIO1P6s{-webkit-transform: translate(515px, 2413.5px);transform: translate(515px, 2413.5px);}#el_5wswNDG5x7F{fill: #FF7EA8;}#el_IA5jlT-B0Bo{opacity: 0.95;fill: #FFFFFF;enable-background: new;}#el_HQNz9c2s6s_an_owaf-vGkU{-webkit-animation-fill-mode: backwards;animation-fill-mode: backwards;-webkit-transform: translate(1277.1500244140625px, 185.75px) rotate(5deg) translate(-1277.1500244140625px, -185.75px);transform: translate(1277.1500244140625px, 185.75px) rotate(5deg) translate(-1277.1500244140625px, -185.75px);-webkit-animation-name: kf_el_HQNz9c2s6s_an_owaf-vGkU;animation-name: kf_el_HQNz9c2s6s_an_owaf-vGkU;-webkit-animation-timing-function: cubic-bezier(0.42, 0, 0.58, 1);animation-timing-function: cubic-bezier(0.42, 0, 0.58, 1);}</style>
  
<g id="el_uoEX0I0VZ9">
	<g id="el_HQNz9c2s6s_an_owaf-vGkU" data-animator-group="true" data-animator-type="1"><g id="el_HQNz9c2s6s">
		<path id="el_ZUy-uxrh4R" d="M1257.1,155.4l16,30.1l-16.6,15L1257.1,155.4z"/>
		<path id="el_Gckx4FexfE" d="M1287.5,172.4l-11.2,10.4l-0.1,0.1l-14-26.4L1287.5,172.4z"/>
		<path id="el_BZidnmxKWz" d="M1250.4,210.3l51-45.8l2.5,28l-44.3,23.6L1250.4,210.3z"/>
	</g></g>
</g>
<g id="el_9fpVv5jXVf">
	<g id="el_AOGi1NVkzO">
		<circle id="el_1sdJyD-TlI" cx="343" cy="768.5" r="4"/>
		<circle id="el_UB_qMj8PqH" cx="21" cy="768.5" r="4"/>
		<circle id="el_0jHejE_0uF" cx="987" cy="768.5" r="4"/>
		<circle id="el_IbNZQA0o3g" cx="1309" cy="768.5" r="4"/>
		<circle id="el_QKFHBoX4Ih" cx="665" cy="768.5" r="4"/>
		<path id="el_9ckedo05N_" d="M19.5,724.9V0.5"/>
		<path id="el_hFj6vdJGhX" d="M342.5,722.7V0.5"/>
		<path id="el_Hdbq7RuI5H" d="M665.5,722.7V0.5"/>
		<path id="el_c1bq-idaGu_" d="M987.5,722.7V0.5"/>
		<path id="el_atut9wX8DBQ" d="M1309.5,722.7V0.5"/>
	</g>
	<g id="el_cxz3rIO1P6s">
		<path id="el_5wswNDG5x7F" d="M-484-1662.1c111,0,159.7-51.8,228-66c61.5-12.8,141,15,206.3-3.8s185-107.8,231.8-147.8&#10;&#9;&#9;&#9;c71.3-60.8,111.8-51.8,195-48.8s158.3-42,195.8-91.5c37.5-49.5,105.8-166.5,194.3-197.2s107.3-53.3,123-108v663H-484z"/>
		<path id="el_IA5jlT-B0Bo" d="M890-1662.1v-596c0,0-3.1,40.4-28.5,64.5c-46.5,44.2-78.7,52.6-179.6,58.8&#10;&#9;&#9;&#9;s-144.5-8.6-257.7,141.3c-108.9,144.2-138.4,183.7-207.8,183.7s-121-53.4-172.4-47.1c-51.4,6.3-73.3,38.6-120.3,81.8&#10;&#9;&#9;&#9;s-122.9,89-197.2,91.2c-98.3,3-165.8-55.5-241.5,21.7H890z"/>
	</g>
</g>
</svg>