<?xml version="1.0" encoding="UTF-8"?>
<svg width="111px" height="24px" viewBox="0 0 111 24" version="1.1" xmlns="http://www.w3.org/2000/svg" xmlns:xlink="http://www.w3.org/1999/xlink">
    <!-- Generator: Sketch 57.1 (83088) - https://sketch.com -->
    <title>Group 18@2x</title>
    <desc>Created with Sketch.</desc>
    <defs>
        <polygon id="path-1" points="0.106760676 0.079235467 14.1543832 0.079235467 14.1543832 13.2776862 0.106760676 13.2776862"></polygon>
    </defs>
    <g id="Desktop" stroke="none" stroke-width="1" fill="none" fill-rule="evenodd">
        <g id="13&quot;-Home" transform="translate(-107.000000, -19.000000)">
            <g id="GNB">
                <g id="Group-18" transform="translate(107.000000, 19.000000)">
                    <polygon id="Fill-1" fill="#231916" points="60 7.01692178 63.9936012 7 64 18.9971342 60.0063988 19"></polygon>
                    <g id="Group-17">
                        <g id="Group-4" transform="translate(95.939467, 6.022270)">
                            <mask id="mask-2" fill="white">
                                <use xlink:href="#path-1"></use>
                            </mask>
                            <g id="Clip-3"></g>
                            <path d="M4.02807749,6.64512504 C4.02664464,4.83407719 5.35153183,3.4674749 7.10977859,3.4660465 C8.87031978,3.46490503 10.2499864,4.87490964 10.2512781,6.6761063 L10.2512781,6.71165624 C10.252711,8.52256132 8.91979332,9.88944914 7.15136505,9.89059239 C5.40114877,9.89201902 4.02936927,8.4820144 4.02807749,6.68067497 L4.02807749,6.64512504 Z M7.14405157,0.079235467 C3.19505888,0.0819504505 0.104037846,2.98319628 0.106760676,6.68367316 L0.106760676,6.71922309 C0.109630507,10.3997121 3.18889261,13.2806844 7.11709207,13.2776886 C11.0660848,13.2748308 14.1572492,10.3737278 14.1543832,6.67325089 L14.1543832,6.63770095 C14.1516565,2.95721199 11.072251,0.0762396178 7.14405157,0.079235467 L7.14405157,0.079235467 Z" id="Fill-2" fill="#231916" mask="url(#mask-2)"></path>
                        </g>
                        <path d="M42.6658669,9.51193133 L44.1813348,9.51078775 C45.4052672,9.50978977 46.0799717,10.0387557 46.0805453,11.0006027 L46.080689,11.0361526 C46.0812623,11.9448889 45.3615297,12.5101185 44.2016978,12.5109752 L42.6681613,12.5121173 L42.6658669,9.51193133 Z M44.4523637,6.33656297 L38.8336031,6.34070588 L38.8430676,19.0423119 L42.6728935,19.0393137 L42.6703123,15.4910305 L44.2769836,15.4898883 C47.7541851,15.4873184 49.9126657,13.7182452 49.9105162,10.8382722 C49.9083636,8.0589527 47.8171384,6.33413842 44.4523637,6.33656297 L44.4523637,6.33656297 Z" id="Fill-5" fill="#231916"></path>
                        <polygon id="Fill-7" fill="#231916" points="79.2491011 6.4335783 79.2059372 6.36776095 74.7857269 6.37104468 79.0836156 12.6117 74.6113506 19.0726507 78.9409311 19.0695097 81.3219709 15.445558 83.690248 19.0659404 88.1110318 19.0627995"></polygon>
                        <path d="M87.9387492,8.24094266 C87.9387492,9.3342816 87.0483688,10.2207456 85.9501995,10.2207456 C84.8520302,10.2207456 83.9616498,9.3342816 83.9616498,8.24094266 C83.9616498,7.14746095 84.8520302,6.2611397 85.9501995,6.2611397 C87.0483688,6.2611397 87.9387492,7.14746095 87.9387492,8.24094266" id="Fill-9" fill="#DD1B73"></path>
                        <polygon id="Fill-11" fill="#E91478" points="13.999995 2.66453526e-13 13.999995 14.5189357 4.78816438 16.8229712"></polygon>
                        <polygon id="Fill-13" fill="#E91478" points="21.6759661 12.6000817 15.2776744 14.200257 15.2012414 14.2193883 15.2012414 1.93781406"></polygon>
                        <polygon id="Fill-15" fill="#3A5BA6" points="-1.61648472e-13 19.2884091 28.1220535 12.220968 23.5023716 23.3475263 2.31392788 23.3475263"></polygon>
                    </g>
                </g>
            </g>
        </g>
    </g>
</svg>