<svg xmlns="http://www.w3.org/2000/svg" xmlns:xlink="http://www.w3.org/1999/xlink" width="235" height="208" viewBox="0 0 235 208" id="el_1QxhmCcJB"><style>@-webkit-keyframes kf_el_j5mE5ulDhL_an_ioI7Dv7-4{77.78%{-webkit-transform: translate(208.70000457763672px, 43.89999961853027px) scale(1, 1) translate(-208.70000457763672px, -43.89999961853027px);transform: translate(208.70000457763672px, 43.89999961853027px) scale(1, 1) translate(-208.70000457763672px, -43.89999961853027px);}83.33%{-webkit-transform: translate(208.70000457763672px, 43.89999961853027px) scale(1.05, 1.05) translate(-208.70000457763672px, -43.89999961853027px);transform: translate(208.70000457763672px, 43.89999961853027px) scale(1.05, 1.05) translate(-208.70000457763672px, -43.89999961853027px);}88.89%{-webkit-transform: translate(208.70000457763672px, 43.89999961853027px) scale(0.95, 0.95) translate(-208.70000457763672px, -43.89999961853027px);transform: translate(208.70000457763672px, 43.89999961853027px) scale(0.95, 0.95) translate(-208.70000457763672px, -43.89999961853027px);}94.44%{-webkit-transform: translate(208.70000457763672px, 43.89999961853027px) scale(1.05, 1.05) translate(-208.70000457763672px, -43.89999961853027px);transform: translate(208.70000457763672px, 43.89999961853027px) scale(1.05, 1.05) translate(-208.70000457763672px, -43.89999961853027px);}100%{-webkit-transform: translate(208.70000457763672px, 43.89999961853027px) scale(1, 1) translate(-208.70000457763672px, -43.89999961853027px);transform: translate(208.70000457763672px, 43.89999961853027px) scale(1, 1) translate(-208.70000457763672px, -43.89999961853027px);}0%{-webkit-transform: translate(208.70000457763672px, 43.89999961853027px) scale(1, 1) translate(-208.70000457763672px, -43.89999961853027px);transform: translate(208.70000457763672px, 43.89999961853027px) scale(1, 1) translate(-208.70000457763672px, -43.89999961853027px);}}@keyframes kf_el_j5mE5ulDhL_an_ioI7Dv7-4{77.78%{-webkit-transform: translate(208.70000457763672px, 43.89999961853027px) scale(1, 1) translate(-208.70000457763672px, -43.89999961853027px);transform: translate(208.70000457763672px, 43.89999961853027px) scale(1, 1) translate(-208.70000457763672px, -43.89999961853027px);}83.33%{-webkit-transform: translate(208.70000457763672px, 43.89999961853027px) scale(1.05, 1.05) translate(-208.70000457763672px, -43.89999961853027px);transform: translate(208.70000457763672px, 43.89999961853027px) scale(1.05, 1.05) translate(-208.70000457763672px, -43.89999961853027px);}88.89%{-webkit-transform: translate(208.70000457763672px, 43.89999961853027px) scale(0.95, 0.95) translate(-208.70000457763672px, -43.89999961853027px);transform: translate(208.70000457763672px, 43.89999961853027px) scale(0.95, 0.95) translate(-208.70000457763672px, -43.89999961853027px);}94.44%{-webkit-transform: translate(208.70000457763672px, 43.89999961853027px) scale(1.05, 1.05) translate(-208.70000457763672px, -43.89999961853027px);transform: translate(208.70000457763672px, 43.89999961853027px) scale(1.05, 1.05) translate(-208.70000457763672px, -43.89999961853027px);}100%{-webkit-transform: translate(208.70000457763672px, 43.89999961853027px) scale(1, 1) translate(-208.70000457763672px, -43.89999961853027px);transform: translate(208.70000457763672px, 43.89999961853027px) scale(1, 1) translate(-208.70000457763672px, -43.89999961853027px);}0%{-webkit-transform: translate(208.70000457763672px, 43.89999961853027px) scale(1, 1) translate(-208.70000457763672px, -43.89999961853027px);transform: translate(208.70000457763672px, 43.89999961853027px) scale(1, 1) translate(-208.70000457763672px, -43.89999961853027px);}}@-webkit-keyframes kf_el_aTkrimgxOJ_an_LT6xq6hG_{75%{-webkit-transform: translate(186.45000457763672px, 26.799999713897705px) scale(1, 1) translate(-186.45000457763672px, -26.799999713897705px);transform: translate(186.45000457763672px, 26.799999713897705px) scale(1, 1) translate(-186.45000457763672px, -26.799999713897705px);}80.56%{-webkit-transform: translate(186.45000457763672px, 26.799999713897705px) scale(1.05, 1.05) translate(-186.45000457763672px, -26.799999713897705px);transform: translate(186.45000457763672px, 26.799999713897705px) scale(1.05, 1.05) translate(-186.45000457763672px, -26.799999713897705px);}86.11%{-webkit-transform: translate(186.45000457763672px, 26.799999713897705px) scale(0.95, 0.95) translate(-186.45000457763672px, -26.799999713897705px);transform: translate(186.45000457763672px, 26.799999713897705px) scale(0.95, 0.95) translate(-186.45000457763672px, -26.799999713897705px);}91.67%{-webkit-transform: translate(186.45000457763672px, 26.799999713897705px) scale(1.05, 1.05) translate(-186.45000457763672px, -26.799999713897705px);transform: translate(186.45000457763672px, 26.799999713897705px) scale(1.05, 1.05) translate(-186.45000457763672px, -26.799999713897705px);}97.22%{-webkit-transform: translate(186.45000457763672px, 26.799999713897705px) scale(1, 1) translate(-186.45000457763672px, -26.799999713897705px);transform: translate(186.45000457763672px, 26.799999713897705px) scale(1, 1) translate(-186.45000457763672px, -26.799999713897705px);}0%{-webkit-transform: translate(186.45000457763672px, 26.799999713897705px) scale(1, 1) translate(-186.45000457763672px, -26.799999713897705px);transform: translate(186.45000457763672px, 26.799999713897705px) scale(1, 1) translate(-186.45000457763672px, -26.799999713897705px);}100%{-webkit-transform: translate(186.45000457763672px, 26.799999713897705px) scale(1, 1) translate(-186.45000457763672px, -26.799999713897705px);transform: translate(186.45000457763672px, 26.799999713897705px) scale(1, 1) translate(-186.45000457763672px, -26.799999713897705px);}}@keyframes kf_el_aTkrimgxOJ_an_LT6xq6hG_{75%{-webkit-transform: translate(186.45000457763672px, 26.799999713897705px) scale(1, 1) translate(-186.45000457763672px, -26.799999713897705px);transform: translate(186.45000457763672px, 26.799999713897705px) scale(1, 1) translate(-186.45000457763672px, -26.799999713897705px);}80.56%{-webkit-transform: translate(186.45000457763672px, 26.799999713897705px) scale(1.05, 1.05) translate(-186.45000457763672px, -26.799999713897705px);transform: translate(186.45000457763672px, 26.799999713897705px) scale(1.05, 1.05) translate(-186.45000457763672px, -26.799999713897705px);}86.11%{-webkit-transform: translate(186.45000457763672px, 26.799999713897705px) scale(0.95, 0.95) translate(-186.45000457763672px, -26.799999713897705px);transform: translate(186.45000457763672px, 26.799999713897705px) scale(0.95, 0.95) translate(-186.45000457763672px, -26.799999713897705px);}91.67%{-webkit-transform: translate(186.45000457763672px, 26.799999713897705px) scale(1.05, 1.05) translate(-186.45000457763672px, -26.799999713897705px);transform: translate(186.45000457763672px, 26.799999713897705px) scale(1.05, 1.05) translate(-186.45000457763672px, -26.799999713897705px);}97.22%{-webkit-transform: translate(186.45000457763672px, 26.799999713897705px) scale(1, 1) translate(-186.45000457763672px, -26.799999713897705px);transform: translate(186.45000457763672px, 26.799999713897705px) scale(1, 1) translate(-186.45000457763672px, -26.799999713897705px);}0%{-webkit-transform: translate(186.45000457763672px, 26.799999713897705px) scale(1, 1) translate(-186.45000457763672px, -26.799999713897705px);transform: translate(186.45000457763672px, 26.799999713897705px) scale(1, 1) translate(-186.45000457763672px, -26.799999713897705px);}100%{-webkit-transform: translate(186.45000457763672px, 26.799999713897705px) scale(1, 1) translate(-186.45000457763672px, -26.799999713897705px);transform: translate(186.45000457763672px, 26.799999713897705px) scale(1, 1) translate(-186.45000457763672px, -26.799999713897705px);}}@-webkit-keyframes kf_el_KELeimvwyV_an__xXHY_MtN{0%{-webkit-transform: translate(150.5px, 71.4079818725586px) rotate(-5deg) translate(-150.5px, -71.4079818725586px);transform: translate(150.5px, 71.4079818725586px) rotate(-5deg) translate(-150.5px, -71.4079818725586px);}50%{-webkit-transform: translate(150.5px, 71.4079818725586px) rotate(5deg) translate(-150.5px, -71.4079818725586px);transform: translate(150.5px, 71.4079818725586px) rotate(5deg) translate(-150.5px, -71.4079818725586px);}100%{-webkit-transform: translate(150.5px, 71.4079818725586px) rotate(-5deg) translate(-150.5px, -71.4079818725586px);transform: translate(150.5px, 71.4079818725586px) rotate(-5deg) translate(-150.5px, -71.4079818725586px);}}@keyframes kf_el_KELeimvwyV_an__xXHY_MtN{0%{-webkit-transform: translate(150.5px, 71.4079818725586px) rotate(-5deg) translate(-150.5px, -71.4079818725586px);transform: translate(150.5px, 71.4079818725586px) rotate(-5deg) translate(-150.5px, -71.4079818725586px);}50%{-webkit-transform: translate(150.5px, 71.4079818725586px) rotate(5deg) translate(-150.5px, -71.4079818725586px);transform: translate(150.5px, 71.4079818725586px) rotate(5deg) translate(-150.5px, -71.4079818725586px);}100%{-webkit-transform: translate(150.5px, 71.4079818725586px) rotate(-5deg) translate(-150.5px, -71.4079818725586px);transform: translate(150.5px, 71.4079818725586px) rotate(-5deg) translate(-150.5px, -71.4079818725586px);}}@-webkit-keyframes kf_el_GElMPOWFYF_an_e163S5xXJ{0%{-webkit-transform: translate(157.0500030517578px, 73px) rotate(-5deg) translate(-157.0500030517578px, -73px);transform: translate(157.0500030517578px, 73px) rotate(-5deg) translate(-157.0500030517578px, -73px);}50%{-webkit-transform: translate(157.0500030517578px, 73px) rotate(2deg) translate(-157.0500030517578px, -73px);transform: translate(157.0500030517578px, 73px) rotate(2deg) translate(-157.0500030517578px, -73px);}100%{-webkit-transform: translate(157.0500030517578px, 73px) rotate(-5deg) translate(-157.0500030517578px, -73px);transform: translate(157.0500030517578px, 73px) rotate(-5deg) translate(-157.0500030517578px, -73px);}}@keyframes kf_el_GElMPOWFYF_an_e163S5xXJ{0%{-webkit-transform: translate(157.0500030517578px, 73px) rotate(-5deg) translate(-157.0500030517578px, -73px);transform: translate(157.0500030517578px, 73px) rotate(-5deg) translate(-157.0500030517578px, -73px);}50%{-webkit-transform: translate(157.0500030517578px, 73px) rotate(2deg) translate(-157.0500030517578px, -73px);transform: translate(157.0500030517578px, 73px) rotate(2deg) translate(-157.0500030517578px, -73px);}100%{-webkit-transform: translate(157.0500030517578px, 73px) rotate(-5deg) translate(-157.0500030517578px, -73px);transform: translate(157.0500030517578px, 73px) rotate(-5deg) translate(-157.0500030517578px, -73px);}}@-webkit-keyframes kf_el_69yrzKyC3A_an_j7mL5GMMf{0%{-webkit-transform: translate(89.4451789855957px, 122.87259674072266px) translate(-89.4451789855957px, -122.87259674072266px) translate(0px, -1px);transform: translate(89.4451789855957px, 122.87259674072266px) translate(-89.4451789855957px, -122.87259674072266px) translate(0px, -1px);}50%{-webkit-transform: translate(89.4451789855957px, 122.87259674072266px) translate(-89.4451789855957px, -122.87259674072266px) translate(10px, -15px);transform: translate(89.4451789855957px, 122.87259674072266px) translate(-89.4451789855957px, -122.87259674072266px) translate(10px, -15px);}100%{-webkit-transform: translate(89.4451789855957px, 122.87259674072266px) translate(-89.4451789855957px, -122.87259674072266px) translate(0px, -1px);transform: translate(89.4451789855957px, 122.87259674072266px) translate(-89.4451789855957px, -122.87259674072266px) translate(0px, -1px);}}@keyframes kf_el_69yrzKyC3A_an_j7mL5GMMf{0%{-webkit-transform: translate(89.4451789855957px, 122.87259674072266px) translate(-89.4451789855957px, -122.87259674072266px) translate(0px, -1px);transform: translate(89.4451789855957px, 122.87259674072266px) translate(-89.4451789855957px, -122.87259674072266px) translate(0px, -1px);}50%{-webkit-transform: translate(89.4451789855957px, 122.87259674072266px) translate(-89.4451789855957px, -122.87259674072266px) translate(10px, -15px);transform: translate(89.4451789855957px, 122.87259674072266px) translate(-89.4451789855957px, -122.87259674072266px) translate(10px, -15px);}100%{-webkit-transform: translate(89.4451789855957px, 122.87259674072266px) translate(-89.4451789855957px, -122.87259674072266px) translate(0px, -1px);transform: translate(89.4451789855957px, 122.87259674072266px) translate(-89.4451789855957px, -122.87259674072266px) translate(0px, -1px);}}#el_1QxhmCcJB *{-webkit-animation-duration: 6s;animation-duration: 6s;-webkit-animation-iteration-count: infinite;animation-iteration-count: infinite;-webkit-animation-timing-function: cubic-bezier(0, 0, 1, 1);animation-timing-function: cubic-bezier(0, 0, 1, 1);}#el_j5mE5ulDhL{fill: #FF5F91;}#el_aTkrimgxOJ{fill: #2B5FE0;}#el_69yrzKyC3A{-webkit-transform: translate(-0.591px, -0.746px);transform: translate(-0.591px, -0.746px);}#el_2qkjrcfIVH{fill: #F2BFAF;}#el_mwJkJ2ttmI{fill: #F2BFAF;}#el_tLaVH0PiGB{fill: #F2BFAF;}#el_AWthsNIVr_{fill: #FF5F91;}#el_UsblC3j-BR{fill: #F2BFAF;}#el_02yvo3bq-q{fill: #FF5F91;}#el_pa-ZP2iIrG{fill: #DDEBED;}#el_un9MYx0c2R{fill: #F2BFAF;}#el_vOPLXqgLok{fill: #F2BFAF;}#el_x_RiGyS_wws{fill: #F2BFAF;}#el_mxuOZBWzwgz{fill: #F2BFAF;}#el_C3f0-31Yz-9{fill: #F2BFAF;}#el_0Pe_ynj_hZI{fill: #F2BFAF;}#el_iA1xh6xjU2b{fill: #F2BFAF;}#el_Zk15qKlryKz{fill: #DDEBED;}#el_P79wSjfIdd0{fill: #DDEBED;}#el_BzxeljPTdrI{fill: #DDEBED;}#el_H4ySNMo0ZwZ{fill: #2B5FE0;}#el_JcIxxzEvQ8h{fill: #773249;}#el_CCuAZT4jXyg{-webkit-transform: translate(6.578px, 179.468px) rotate(-7deg);transform: translate(6.578px, 179.468px) rotate(-7deg);}#el_Zl_bLPzkgy0{fill: none;}#el_j4g83UvgJCZ{-webkit-clip-path: url(#SVGID_2_);clip-path: url(#SVGID_2_);}#el_V9L1a7btRag{fill: #932E2E;}#el_tTiW-WeikRf{fill: #932E2E;}#el_69yrzKyC3A_an_j7mL5GMMf{-webkit-animation-fill-mode: backwards;animation-fill-mode: backwards;-webkit-transform: translate(89.4451789855957px, 122.87259674072266px) translate(-89.4451789855957px, -122.87259674072266px) translate(0px, -1px);transform: translate(89.4451789855957px, 122.87259674072266px) translate(-89.4451789855957px, -122.87259674072266px) translate(0px, -1px);-webkit-animation-name: kf_el_69yrzKyC3A_an_j7mL5GMMf;animation-name: kf_el_69yrzKyC3A_an_j7mL5GMMf;-webkit-animation-timing-function: cubic-bezier(0.42, 0, 0.58, 1);animation-timing-function: cubic-bezier(0.42, 0, 0.58, 1);}#el_GElMPOWFYF_an_e163S5xXJ{-webkit-animation-fill-mode: backwards;animation-fill-mode: backwards;-webkit-transform: translate(157.0500030517578px, 73px) rotate(-5deg) translate(-157.0500030517578px, -73px);transform: translate(157.0500030517578px, 73px) rotate(-5deg) translate(-157.0500030517578px, -73px);-webkit-animation-name: kf_el_GElMPOWFYF_an_e163S5xXJ;animation-name: kf_el_GElMPOWFYF_an_e163S5xXJ;-webkit-animation-timing-function: cubic-bezier(0.42, 0, 0.58, 1);animation-timing-function: cubic-bezier(0.42, 0, 0.58, 1);}#el_KELeimvwyV_an__xXHY_MtN{-webkit-animation-fill-mode: backwards;animation-fill-mode: backwards;-webkit-transform: translate(150.5px, 71.4079818725586px) rotate(-5deg) translate(-150.5px, -71.4079818725586px);transform: translate(150.5px, 71.4079818725586px) rotate(-5deg) translate(-150.5px, -71.4079818725586px);-webkit-animation-name: kf_el_KELeimvwyV_an__xXHY_MtN;animation-name: kf_el_KELeimvwyV_an__xXHY_MtN;-webkit-animation-timing-function: cubic-bezier(0, 0, 1, 1);animation-timing-function: cubic-bezier(0, 0, 1, 1);}#el_aTkrimgxOJ_an_LT6xq6hG_{-webkit-animation-fill-mode: backwards;animation-fill-mode: backwards;-webkit-transform: translate(186.45000457763672px, 26.799999713897705px) scale(1, 1) translate(-186.45000457763672px, -26.799999713897705px);transform: translate(186.45000457763672px, 26.799999713897705px) scale(1, 1) translate(-186.45000457763672px, -26.799999713897705px);-webkit-animation-name: kf_el_aTkrimgxOJ_an_LT6xq6hG_;animation-name: kf_el_aTkrimgxOJ_an_LT6xq6hG_;-webkit-animation-timing-function: cubic-bezier(0.42, 0, 0.58, 1);animation-timing-function: cubic-bezier(0.42, 0, 0.58, 1);}#el_j5mE5ulDhL_an_ioI7Dv7-4{-webkit-animation-fill-mode: backwards;animation-fill-mode: backwards;-webkit-transform: translate(208.70000457763672px, 43.89999961853027px) scale(1, 1) translate(-208.70000457763672px, -43.89999961853027px);transform: translate(208.70000457763672px, 43.89999961853027px) scale(1, 1) translate(-208.70000457763672px, -43.89999961853027px);-webkit-animation-name: kf_el_j5mE5ulDhL_an_ioI7Dv7-4;animation-name: kf_el_j5mE5ulDhL_an_ioI7Dv7-4;-webkit-animation-timing-function: cubic-bezier(0.42, 0, 0.58, 1);animation-timing-function: cubic-bezier(0.42, 0, 0.58, 1);}</style>
  
<g id="el_QnrLkigWDo">
	<g id="el_j5mE5ulDhL_an_ioI7Dv7-4" data-animator-group="true" data-animator-type="2"><path id="el_j5mE5ulDhL" d="M232.3,63.5l-47.2-4.9c-1.3-0.1-2.3-1.2-2.3-2.5l-0.5-29.2c0-1.4,1.1-2.6,2.5-2.6&#10;&#9;&#9;c0.1,0,0.2,0,0.3,0l47.2,4.9c1.3,0.1,2.3,1.2,2.3,2.5l0.5,29.2c0,1.4-1.1,2.6-2.5,2.6C232.5,63.5,232.4,63.5,232.3,63.5"/></g>
	<g id="el_aTkrimgxOJ_an_LT6xq6hG_" data-animator-group="true" data-animator-type="2"><path id="el_aTkrimgxOJ" d="M218.6,52.4L154.3,46c-1.6-0.1-2.8-1.4-2.8-3l-0.7-38.7c0-1.7,1.4-3.1,3.1-3.1c0.1,0,0.2,0,0.4,0&#10;&#9;&#9;l64.3,6.4c1.6,0.1,2.8,1.4,2.8,3l0.7,38.7c0,1.7-1.4,3.1-3.1,3.1C218.9,52.4,218.8,52.4,218.6,52.4"/></g>
</g>
<g id="el_69yrzKyC3A_an_j7mL5GMMf" data-animator-group="true" data-animator-type="0"><g id="el_69yrzKyC3A">
	<path id="el_2qkjrcfIVH" d="M150.9,66.6c-1.6,0.2-1.3,5.2-2.9,5.8c-1.7,0.6,4.9,4.3,5.8,3.9c0.9-0.4,1.6-3.6,3.4-4.7&#10;&#9;&#9;C159,70.6,153.1,66.4,150.9,66.6"/>
	<g id="el_GElMPOWFYF_an_e163S5xXJ" data-animator-group="true" data-animator-type="1"><g id="el_GElMPOWFYF">
		<path id="el_mwJkJ2ttmI" d="M148.4,142.5c0.2,2.2,0.2,4.3-0.1,6.5c-0.3,1.6-1.9,2.5-1,6.3c0.8,3.8,3.6-4.1,3.6-4.1l3.1-1.6&#10;&#9;&#9;&#9;c0,0,1.2-0.8,0.3-1.3c-1.1-0.6-1-0.7-1-3.4c0-2.7,2.7-5.6,1.9-5.9c-0.8-0.4-6.7,2.6-6.7,3.2"/>
		<path id="el_tLaVH0PiGB" d="M152.2,148.7c0.9-0.3,4.8-1,5.9,0.4c1,1.4,0.8,3.5,0.2,3.8S152.2,148.7,152.2,148.7"/>
		<path id="el_AWthsNIVr_" d="M170.9,158.9c-0.8-0.8-2-0.9-3-0.3c-1.9,0.8-2.4,3.3-2.1,5c0.2,1,1.1,1.8,2.2,1.8&#10;&#9;&#9;&#9;c-1.9,3.6-5.7,4.8-8.2,4.1c-0.9-0.3-1.8-0.7-2.6-1.2c-0.8-0.3-1.2,0.3-3-0.8c-2-1.2-3.5-6.5-2.6-11.4c0.8-4.1,3.8-6.3,7.7-6.3&#10;&#9;&#9;&#9;c1.4,0,2.8,0.6,3.7,1.6c0.6,0.6,1.4,0.9,2.2,0.8c1.5-0.1,3,0.4,4.2,1.3C170.9,154.9,171,156.9,170.9,158.9"/>
		<path id="el_UsblC3j-BR" d="M149.6,149.3c-1.5,1.1-2.3,2.8-2.2,4.6c0.1,1.6,0.5,3.1,1.3,4.4c1,2,2.9,3.4,5.2,3.8&#10;&#9;&#9;&#9;c0.3,0.1,0.6,0,0.7-0.3c0-0.1,0-0.2,0-0.3c-0.1-0.6-1.1-1-1.6-1.4c-1.1-0.8-2.7-2.7-1.9-3.2c0.2,0,0.4,0.1,0.6,0.3&#10;&#9;&#9;&#9;c0.3,0.5,0.6,0.9,1,1.3c0.8,0.9,1.9,1.6,3.1,2c0.7,0.2,1.3,0,1.4-0.4c0.1-0.3,0-0.7-0.7-1c-0.8-0.4-1.5-1-2.2-1.6&#10;&#9;&#9;&#9;c-0.5-0.5-0.9-1.2-1.3-1.8c-0.2-0.4-0.3-0.6,0-0.8c0.4-0.3,1,0.7,1.7,1.3c0.6,0.6,1.4,1.2,2.1,1.7c0.7,0.5,1.6,0.9,2.4,1&#10;&#9;&#9;&#9;c0.4,0.1,0.7-0.1,0.9-0.4c0.1-0.3,0-0.7-0.3-0.9c-1-0.5-1.9-1.1-2.8-1.8c-0.9-0.8-2.1-2.1-1.7-2.5c0.3-0.3,0.7-0.1,1,0.2&#10;&#9;&#9;&#9;c1,1.1,2.2,2,3.6,2.7c0.5,0.3,1.1,0.2,1.5-0.2c0.2-0.3,0.1-0.6-0.1-0.8c0,0,0,0,0,0c-0.8-0.5-1.6-1.2-2.3-1.9&#10;&#9;&#9;&#9;c-0.9-0.9-3.1-3.8-4.4-4.3C152.8,148.2,151,148.4,149.6,149.3"/>
		<path id="el_02yvo3bq-q" d="M168.8,150.4c-1.2,0.6-2.6,0.6-3.7-0.1l0,0c0.2-1.3,1-2.4,2.2-3c1.2-0.6,2.6-0.5,3.7,0.1l0,0&#10;&#9;&#9;&#9;C170.8,148.7,170,149.8,168.8,150.4"/>
		<path d="M160.6,85.6c0.6-6.4-3.2-10.3-8.9-12.6c-6.2,6.4-3.2,17.2-8.6,24.2c1.6,0.7,2.9,1.3,3.4,1.3&#10;&#9;&#9;&#9;c1.7,0.2,2.2,12.8,2.3,15.9c0.1,3.1-1.5,28.3-2.3,30.9c1.3,1,4.1-1.7,6.4-2.2c2.4-0.5,6.3-1,6.9-1.5c0.7-0.5-1.1-18.9-1-25.2&#10;&#9;&#9;&#9;C158.9,110.1,160,92,160.6,85.6z" id="el_pa-ZP2iIrG"/>
	</g></g>
	<path id="el_un9MYx0c2R" d="M30.4,175.3c-4.3,1.1-12.7,2.6-13,2.8c-0.4,0.1-0.6,3.4,0.6,3.8c1.2,0.5,1.8,1.1,4,0.6&#10;&#9;&#9;c2.1-0.5,7.5-0.5,9.2-1.1C32.8,180.8,34.7,174.2,30.4,175.3"/>
	<path id="el_vOPLXqgLok" d="M28.7,179.1c-4.6,1.4-13.5,3.5-13.9,3.6s-0.4,3.1,1,3.4s2.1,0.8,4.4,0.2s8.2-1.1,9.9-1.8&#10;&#9;&#9;C31.9,183.8,33.3,177.7,28.7,179.1"/>
	<g id="el_KELeimvwyV_an__xXHY_MtN" data-animator-group="true" data-animator-type="1"><g id="el_KELeimvwyV">
		<path id="el_x_RiGyS_wws" d="M87.2,99.7c0,0-6,2.1-7,3.6c-1.5,2.2-3.1,2.3-4,3c-1.3,1.2-2.6,2.8-3.4,2.5&#10;&#9;&#9;&#9;c-0.4-0.2-0.6-0.7-0.4-1.1c0.5-1.4,2.1-2,2.4-3.4c0.1-0.4,0.1-0.8-0.3-0.8c-1-0.1-1.9,0.6-2.6-1.3c-0.2-0.6-0.2-1.3,0.1-2&#10;&#9;&#9;&#9;c0-0.8,0.4-1.5,0.9-2.1c1-0.8,2.4-1.2,3.7-1c1,0.1,1.9,0.3,2.9,0.6c2.3,0.2,4.9-1.4,5.7-1.7C88.4,95.1,87.2,99.7,87.2,99.7"/>
		<path id="el_mxuOZBWzwgz" d="M75.5,97.5c-2.1-0.1-3.6-0.3-4.9-0.4s-1.4,0.4-1.5,0.6c0,0.2,0.5,0.4,1.3,0.5&#10;&#9;&#9;&#9;c0.8,0.1,2.7,0.3,2.5,0.9c-0.2,0.5,5.2-1.2,5-1.4C77.2,97.5,76.3,97.4,75.5,97.5"/>
		<path id="el_C3f0-31Yz-9" d="M72.3,99c-0.1,0.5-2.1,0.5-3,0.4c-0.9-0.1-2.7-0.1-2.7,0.6c0,0.7,1,0.7,1.5,0.8s2.3,0,3,0.1&#10;&#9;&#9;&#9;c0.7,0.1,0.9,0.2,1.1,0.4c0.1,0.2,0.7-0.6,0.6-1.3C72.9,99.6,72.7,99.3,72.3,99"/>
		<path id="el_0Pe_ynj_hZI" d="M73,100c0,0.6-2.7,1.1-3.9,1.3s-3.6,0.7-3.5,1.4s1.4,0.5,2.2,0.4c0.7-0.1,3.1-0.7,4.1-0.8&#10;&#9;&#9;&#9;c0.9-0.1,1.2-0.1,1.5,0.1c0.1,0.1,0.9-0.8,0.8-1.5C74,100.4,73,100,73,100"/>
		<path id="el_iA1xh6xjU2b" d="M74.2,101.4c0.1,0.6-2.2,1.6-3.2,2c-1,0.4-3,1.3-2.8,2.1c0.2,0.7,1.4,0.2,2,0&#10;&#9;&#9;&#9;c0.6-0.2,2.6-1.3,3.4-1.5s2.8-0.5,2.8-0.1c0,0.3,0.6-0.5,0.1-1.2C75.8,102.1,75,101.7,74.2,101.4"/>
		<path d="M150.5,72.6c-6-2.1-12.6-1.4-18,1.9l0,0c-5.8,3.5-12.2,8-18.5,10c-6.3,2-26.8,9.9-31,9.5&#10;&#9;&#9;&#9;c-1.7,0.6-0.6,4.5,0.2,5.5s4.7,6.9,8.1,7.3c2.4,0,10.6-4.5,23.6-8.8c12.7-4.1,16.4-6.6,16.4-6.6s0.2,0.1,0.6,0.3&#10;&#9;&#9;&#9;C136.9,84.1,142.3,77.3,150.5,72.6z" id="el_Zk15qKlryKz"/>
	</g></g>
	<path d="M146.9,71.7c-8.2,4.7-14.7,9.9-19.9,17.6c1.8,0.9,19.6,10.3,23.4,12.1c5.5-7-3.4-21.3,2.8-27.7&#10;&#9;&#9;c0,0-1.9-0.9-2-0.9C150.8,72.6,147.3,71.8,146.9,71.7z" id="el_P79wSjfIdd0"/>
	<path id="el_BzxeljPTdrI" d="M129.9,86.3c0,0-2.8,14.6-10.5,19.6c-7.7,5.1-10.9,4.9-14.5,7.4c-3.6,2.5-0.5,11.9-0.5,11.9&#10;&#9;&#9;l30.3,16.9c0,0,2.6,2.1,5.2-2.5c0.7-1.2,1.8-5.2,3.9-10.4c3-7.4,8.9-22.9,9.2-23.6s0.7-14.8,0.7-14.8l-14.7-4.1L129.9,86.3z"/>
	<path id="el_H4ySNMo0ZwZ" d="M107.2,118.8c-2.7,5.5-6.6,10.4-11.4,14.2C88,139.2,72,153.2,59,159.8S32.7,171.5,28.9,172&#10;&#9;&#9;c-0.8,2,3.2,3.6,3,6.1c-1.5,0.5-3,0.9-4.5,1.1c0,0,3.4,3.4,3.7,6.6c0.3,3.2-0.1,3,2.5,2.4s14.1-2.9,27.9-6.7&#10;&#9;&#9;c13.7-3.8,47.7-17.1,60.2-28.6c12.6-11.5,14.4-14,14.4-14c0.3-4-1-7.9-3.7-11c-4-4.5-9.3-7.6-15.2-9.1&#10;&#9;&#9;C113.3,118,109.2,117.4,107.2,118.8"/>
	<path id="el_JcIxxzEvQ8h" d="M163.2,38.3c-3.5-0.3-7,2.6-7.7,5.5c-1.9-0.7-4.1-0.5-5.7,0.7c-2,1.6-1.5,4.3-0.7,4.7&#10;&#9;&#9;c-2-0.1-3.7,1.5-3.8,3.6c0,0.4,0,0.8,0.2,1.2c-2,1.4-3,4-2.4,6.4c0.8,2.9,3.2,4.7,4,4.5c0.4,0.5,0.7,4.4,3.8,4.1&#10;&#9;&#9;c0.1,1,2.7,2.9,4.9,2.7c1.1,0,2.2-0.4,3.1-1.2c0,0,1.3,4.2,6.9,2.7c3.1-0.8,3.3-4.4,3.2-5.7c0.7-0.2,9.1-1.4,8.4-12&#10;&#9;&#9;c-0.3-5.5-3.1-9.5-7.4-8.9C169.7,45.3,169.4,38.9,163.2,38.3"/>
	<g id="el_CCuAZT4jXyg">
		<path id="el_Zl_bLPzkgy0" d="M0.2,1.1l14.6,0l0,29.1l-14.6,0L0.2,1.1z"/>
		<g id="el_cXNC2Cf1wJ2">
			<defs>

					<rect id="SVGID_1_" x="0.2" y="1.1" transform="matrix(0.9925 -0.1219 0.1219 0.9925 -1.8504 1.023)" width="14.6" height="29.1"/>
			</defs>
			<clipPath id="SVGID_2_">
				<use xlink:href="#SVGID_1_" style="overflow:visible;"/>
			</clipPath>
			<g id="el_j4g83UvgJCZ">
				<path id="el_V9L1a7btRag" d="M11.7,1.2C8.3,0.3,7.5,4.1,6.4,7.3S1.8,14,0.8,18.2s-1.1,10.9,1.2,11.9s7-3.5,9.3-9.5&#10;&#9;&#9;&#9;&#9;&#9;s2.2-10.8,2.9-13.3C14.9,4.7,15.3,2.2,11.7,1.2"/>
			</g>
		</g>
	</g>
	<path id="el_tTiW-WeikRf" d="M16.8,174.3c-3.3-1.1-4.5,2.5-5.8,5.5c-1.4,3-5.1,6.2-6.4,10.2c-1.3,4-1.9,10.6,0.4,11.7&#10;&#9;&#9;s7.3-2.9,10.1-8.6c2.8-5.7,3.1-10.3,3.9-12.8C19.8,178,20.4,175.5,16.8,174.3"/>
</g></g>
</svg>