<?xml version="1.0" encoding="utf-8"?>
<!-- Generator: Adobe Illustrator 22.1.0, SVG Export Plug-In . SVG Version: 6.00 Build 0)  -->
<svg xmlns="http://www.w3.org/2000/svg" xmlns:xlink="http://www.w3.org/1999/xlink" width="215.818" height="312.081" viewBox="0 0 215.818 312.081">
<style type="text/css">
	.st0{fill:#23D1A3;}
	.st1{enable-background:new    ;}
	.st2{fill:#FFFFFF;}
	.st3{fill:#1A1A1A;}
	.st4{fill:#A15532;}
	.st5{fill:none;}
	.st6{clip-path:url(#SVGID_2_);}
	.st7{fill:#4C2116;}
	.st8{fill:#F2AAAA;}
	.st9{clip-path:url(#SVGID_4_);}
	.st10{fill:#2D3E9B;}
	.st11{fill:#21216C;}
	.st12{fill:#18204D;}
	.st13{clip-path:url(#SVGID_6_);}
</style>
<g id="Group_76" transform="translate(-387.666 -6795.077)">
	<g id="Group_51" transform="translate(503.772 6792) rotate(19)">
		<path id="Rectangle_Copy_61" class="st0" d="M21.6,3.2l73,0c6.6,0,12,5.4,12,12v24c0,6.6-5.4,12-12,12l-73,0c-6.6,0-12-5.4-12-12
			l0-24C9.6,8.6,14.9,3.2,21.6,3.2z"/>
		<g class="st1">
			<path class="st2" d="M33.3,35.9l0-16.3l5.8,0c1.8,0,3.2,0.5,4.2,1.5c0.9,1,1.4,2.3,1.4,3.9c0,1.6-0.5,2.9-1.4,3.9
				c-0.9,1-2.3,1.5-4.2,1.5l-2.9,0l0,5.4L33.3,35.9z M39,27.7c0.9,0,1.6-0.2,2.1-0.7c0.5-0.5,0.7-1.1,0.7-1.9c0-0.8-0.2-1.4-0.7-1.9
				c-0.5-0.5-1.1-0.7-2.1-0.7l-2.9,0l0,5.3L39,27.7z"/>
			<path class="st2" d="M46.8,35.9l0-16.3l2.9,0l0,16.3L46.8,35.9z"/>
			<path class="st2" d="M62.6,35.9l-3.5-5.3l-3.5,5.3l-3.4,0l5.2-7.9l-5.6-8.4l3.4,0l3.9,5.9l3.9-5.9l3.4,0L60.8,28l5.2,7.9
				L62.6,35.9z"/>
			<path class="st2" d="M81.4,21.8c1.6,1.6,2.5,3.6,2.5,6c0,2.4-0.8,4.4-2.5,6c-1.6,1.6-3.6,2.4-6,2.4c-2.4,0-4.4-0.8-6-2.4
				c-1.7-1.6-2.5-3.6-2.5-6c0-2.4,0.8-4.4,2.4-6c1.6-1.6,3.7-2.5,6.1-2.5C77.7,19.3,79.7,20.1,81.4,21.8z M75.3,33.5
				c1.6,0,2.9-0.6,4-1.7c1.1-1.1,1.6-2.5,1.6-4.1c0-1.6-0.5-3-1.6-4.1c-1.1-1.1-2.4-1.7-4-1.7c-1.6,0-2.9,0.6-4,1.7
				c-1.1,1.1-1.6,2.5-1.6,4.1c0,1.6,0.6,2.9,1.7,4.1C72.4,33,73.8,33.5,75.3,33.5z"/>
		</g>
	</g>
	<g id="Group_32" transform="translate(387 6794.808)">
		<g id="Group_12" transform="translate(20.666 138)">
			<path id="Fill_1" class="st3" d="M40.4,152.6c-2.3,0.1-3.7-0.9-4.5-3.3c-0.9-2.8-4-3.3-6.1-4.9c0.2-2.9,2.7-7.4,5.2-8.8
				c0.8-0.4,1.6-0.6,2.5-0.7c1.1-0.2,2.3-0.1,3.4,0.4c1.4,0.7,2.3,2.3,2.1,3.9c-0.1,1.1-0.9,1.9-1.2,3c-0.2,0.8-0.2,1.7-0.1,2.5
				C41.7,145.5,41.1,152.6,40.4,152.6"/>
			<path id="Fill_3" class="st3" d="M25,149c-0.6,1.5-1.4,2.9-2.2,4.4c-0.3,0.6-0.7,1.4-1.4,1.2c-3-1-6.6,0.6-9.3-1.9
				c-0.2-2-1.6-4.9-0.3-6.6c0.7-0.9,1.7-1.5,2.8-1.8c2.3-0.8,4.8-0.6,6.9,0.6C23.2,145.8,23.4,147.9,25,149"/>
			<path id="Fill_5" class="st4" d="M40.4,152.6c1.8,0.5,3.1,2,3.5,3.8c1.4,4.4,5.3,6.4,9,8.4c2.6,1.4,4.5,3.2,3.6,6.5
				c-1.8-0.5-3.7,0.4-5.5,0.1c-7.5-1.3-14.1-4.9-20-9.8c-1.7-1.5-3.5-2.9-5.4-4.2c-1.5-1-3.3-1.1-4.4,0.6s0.1,2.8,1.4,3.8
				c1.9,1.4,3.8,2.9,6,4.6c-2.9,1.5-6,2.6-9.1,3.3c-3.9,0.9-7.8,0-11.6-1c0.8-4.2,1.5-8.4,2.4-12.6c0.4-1.2,1-2.4,1.7-3.6
				c2.7,2.5,6.3,0.9,9.3,1.9c0.7,0.3,1.1-0.6,1.4-1.2c0.8-1.5,1.5-2.9,2.2-4.4c1.2-1.9,2.2-4.1,4.7-4.5c2.1,1.5,5.2,2.1,6.1,4.9
				C36.7,151.7,38.1,152.7,40.4,152.6"/>
			<g id="Group_9" transform="translate(7.066 156.134)">
				<path id="Clip_8-2" class="st5" d="M0.2,0.5h49.8v17.7H0.2V0.5z"/>
				<g>
					<defs>
						<rect id="SVGID_1_" x="0.2" y="0.5" width="49.8" height="17.7"/>
					</defs>
					<clipPath id="SVGID_2_">
						<use xlink:href="#SVGID_1_"  style="overflow:visible;"/>
					</clipPath>
					<g id="Group_9-2" class="st6">
						<path id="Fill_7" class="st7" d="M1.1,12.6c3.8,1,7.6,1.9,11.6,1c3.2-0.8,6.2-1.9,9.1-3.3c-2.2-1.7-4.1-3.2-6-4.6
							c-1.3-1-2.5-2.1-1.4-3.8s2.9-1.6,4.4-0.6c1.9,1.3,3.7,2.7,5.4,4.2c5.9,4.9,12.4,8.4,20,9.8c1.8,0.3,3.7-0.6,5.5-0.1
							c1.5,2.1-0.2,2.5-1.6,2.8c-3.1,0.5-6.3,0.3-9.4-0.6c-3.2-0.9-6.5-1.5-9.5-3.2c-2.9-1.7-9.3-0.1-11.2,2.5
							c-0.5,0.6-1.2,0.9-2,0.9c-4.3,0.8-8.7,0.7-13-0.2C0,16.8-0.4,15.6,1.1,12.6"/>
					</g>
				</g>
			</g>
			<path id="Fill_10" class="st8" d="M11.7,5.1C12.4,5.6,12.8,6.3,13,7c0.2,1.1,0.2,2.2-0.2,3.2c-0.4,1-0.9,2-1.5,2.9l-4.9,8.1
				c-1.3,2.1-2.2,4.4-2.7,6.8C2,23.9,2.2,19.6,2.3,15.3c0.1-1.6-0.1-3.2-0.4-4.8C1.7,9.8,1.4,9.1,1.1,8.4C0.8,7.8,0.5,7.2,0.3,6.6
				C0.1,5.7,0.1,4.9,0.3,4c0.4-0.8,1-1.5,1.8-2c0.7-0.5,1.5-0.9,2.3-1.2c0.4-0.2,0.9-0.3,1.3-0.2C6.1,0.7,6.4,0.8,6.6,1
				c0.5,0.2,1,0.4,1.4,0.6C8.4,2,8.7,2.4,8.9,2.9c0.3,0.5,0.6,0.9,0.9,1.2C10.4,4.5,11.1,4.8,11.7,5.1L11.7,5.1"/>
		</g>
		<g id="Group_19" transform="translate(19.666 139)">
			<path id="Clip_14-2" class="st5" d="M47.9,1.1c-4.1,1.5-8.3,2.8-12.6,3.8l0,0c-2.9,0.7-5.8,0.2-8.8-0.1l0,0
				c-0.8-0.1-1.7-0.1-2.5-0.1l0,0c-0.7,0-1.3,0-2,0l0,0c-1.5-0.1-3-0.3-4.5-0.4l0,0c-1.9-0.2-5.2-0.6-6.8,0.6l0,0
				C7,12,5,19.6,3.1,27.3l0,0c-0.7,6.2,0,12.6,2,18.5l0,0c1,3,1.1,6.3,0.3,9.4l0,0C4,61.3,2.9,67.5,1.6,73.6l0,0
				c-2.5,11.5-0.9,22.9,0.3,34.5l0,0c1.2,10.8,2.5,22,5.4,32.5l0,0c0.6,2.3,1.5,6.1,4,7l0,0c5.8,1,10.4,0,14.8-3.9l0,0
				c0.4-0.3,0.7-0.8,1-1.2l0,0c0.1-0.4,0.2-0.9,0.1-1.3l0,0c-0.2-5.3-0.6-10.4-0.5-15.6l0,0c0.1-6.8,0.2-13.7,0.2-20.5l0,0
				c0-16.8,4.3-33,6.1-49.5l0,0c2,1.6,2.7,3.9,3.2,6.2l0,0c2,8.6,2.8,17.4,2.3,26.2l0,0c-0.4,8.3-1.8,16.4-4.2,24.4l0,0
				c-1.2,4.1-1.6,8.3-2.4,12.5l0,0c-0.7,3.9-1.7,7.7-2.1,11.7l0,0c0,0.2,0,0.4,0,0.6l0,0c0.1,0.2,0.2,0.4,0.4,0.5l0,0
				c0.5,0.4,1.1,0.6,1.7,0.7l0,0c1.4,0.3,2.9,1.7,4.3,2.3l0,0c3.4,1.5,6.8,3.2,10.5,3.1l0,0c0.2,0,0.4,0,0.5-0.1l0,0
				c0.5-0.2,0.7-0.9,0.9-1.4l0,0c0.8-4.2,1-8.4,2.2-12.6l0,0c1.2-4.3,3.1-8.4,4.6-12.7l0,0c4.9-14,11.2-27.5,11.5-42.8l0,0
				c0.2-9.2-0.1-18.6-2.4-27.6l0,0c-1.2-4.5-3-8.6-4.2-13.1l0,0c-1.2-4.8-2.5-9.6-3.7-14.3l0,0c-0.3-1-0.5-2.1-0.8-3.1l0,0
				c-0.3-0.7-0.6-1.5-0.8-2.2l0,0c-0.4-2.2-0.9-4.4-1.4-6.6l0,0c-0.3-1.3-0.7-2.6-1.1-3.9l0,0c-0.2-0.5-0.5-2.5-1-2.8l0,0
				c-0.3-0.1-0.5-0.2-0.8-0.2l0,0C49.4,0.4,48.6,0.7,47.9,1.1z"/>
			<g>
				<defs>
					<path id="SVGID_3_" d="M47.9,1.1c-4.1,1.5-8.3,2.8-12.6,3.8l0,0c-2.9,0.7-5.8,0.2-8.8-0.1l0,0c-0.8-0.1-1.7-0.1-2.5-0.1l0,0
						c-0.7,0-1.3,0-2,0l0,0c-1.5-0.1-3-0.3-4.5-0.4l0,0c-1.9-0.2-5.2-0.6-6.8,0.6l0,0C7,12,5,19.6,3.1,27.3l0,0
						c-0.7,6.2,0,12.6,2,18.5l0,0c1,3,1.1,6.3,0.3,9.4l0,0C4,61.3,2.9,67.5,1.6,73.6l0,0c-2.5,11.5-0.9,22.9,0.3,34.5l0,0
						c1.2,10.8,2.5,22,5.4,32.5l0,0c0.6,2.3,1.5,6.1,4,7l0,0c5.8,1,10.4,0,14.8-3.9l0,0c0.4-0.3,0.7-0.8,1-1.2l0,0
						c0.1-0.4,0.2-0.9,0.1-1.3l0,0c-0.2-5.3-0.6-10.4-0.5-15.6l0,0c0.1-6.8,0.2-13.7,0.2-20.5l0,0c0-16.8,4.3-33,6.1-49.5l0,0
						c2,1.6,2.7,3.9,3.2,6.2l0,0c2,8.6,2.8,17.4,2.3,26.2l0,0c-0.4,8.3-1.8,16.4-4.2,24.4l0,0c-1.2,4.1-1.6,8.3-2.4,12.5l0,0
						c-0.7,3.9-1.7,7.7-2.1,11.7l0,0c0,0.2,0,0.4,0,0.6l0,0c0.1,0.2,0.2,0.4,0.4,0.5l0,0c0.5,0.4,1.1,0.6,1.7,0.7l0,0
						c1.4,0.3,2.9,1.7,4.3,2.3l0,0c3.4,1.5,6.8,3.2,10.5,3.1l0,0c0.2,0,0.4,0,0.5-0.1l0,0c0.5-0.2,0.7-0.9,0.9-1.4l0,0
						c0.8-4.2,1-8.4,2.2-12.6l0,0c1.2-4.3,3.1-8.4,4.6-12.7l0,0c4.9-14,11.2-27.5,11.5-42.8l0,0c0.2-9.2-0.1-18.6-2.4-27.6l0,0
						c-1.2-4.5-3-8.6-4.2-13.1l0,0c-1.2-4.8-2.5-9.6-3.7-14.3l0,0c-0.3-1-0.5-2.1-0.8-3.1l0,0c-0.3-0.7-0.6-1.5-0.8-2.2l0,0
						c-0.4-2.2-0.9-4.4-1.4-6.6l0,0c-0.3-1.3-0.7-2.6-1.1-3.9l0,0c-0.2-0.5-0.5-2.5-1-2.8l0,0c-0.3-0.1-0.5-0.2-0.8-0.2l0,0
						C49.4,0.4,48.6,0.7,47.9,1.1z"/>
				</defs>
				<clipPath id="SVGID_4_">
					<use xlink:href="#SVGID_3_"  style="overflow:visible;"/>
				</clipPath>
				<g id="Group_19-2" class="st9">
					<path id="Fill_13" class="st10" d="M-6.8,160.9h88.3V-14.6H-6.8V160.9z"/>
					<path id="Fill_15" class="st11" d="M23.9,6.4c0,0.1,0,0.2,0,0.3c0,1-0.6,2.1-0.7,3.1C23,10.9,23,12,22.8,13.1
						c-0.6,5.1-0.7,10.2-0.4,15.3c0.2,5,1.6,9.9,3.9,14.4c1.2,2.1,3.2,3.6,4.6,5.5c1.7,2,2.4,4.7,2,7.2C31.1,72,26.9,88.2,26.8,105
						c0,6.8-0.1,13.7-0.2,20.5c-0.1,5.3,0.3,10.4,0.5,15.6c0,0.4,0,0.9-0.1,1.3c-0.2,0.5-0.5,0.9-0.9,1.2c-4.4,3.9-9,4.9-14.8,3.9
						c-2.5-0.9-3.4-4.7-4-7c-2.9-10.5-4.3-21.7-5.4-32.5C0.6,96.6-0.9,85.1,1.6,73.6C2.9,67.5,4,61.3,5.4,55.2
						c0.8-3.1,0.7-6.3-0.3-9.4c-2-6-2.7-12.3-2-18.5c0.2-1.3,0.6-2.7,1-4c0.4-1.4,0.7-2.7,1.1-4.1c0.8-2.7,1.7-5.4,2.7-8
						c0.5-1.3,1.1-2.6,1.7-3.9c0.4-0.7,0.7-2.1,1.4-2.6c0.8-0.6,2.5-0.6,3.5-0.7c1.3-0.1,2.6,0,3.9,0.2c1.1,0.2,2.2,0.5,3.3,0.9
						C22.5,5.4,23.6,5.7,23.9,6.4"/>
					<path id="Fill_16" class="st11" d="M23.7,13.9c-4,0-8-0.5-12-1.4l0.7-3.2c5.4,1.2,16.5,3.7,36.2-3.9l1.2,3.1
						C38.7,12.7,30.1,13.9,23.7,13.9"/>
					<path id="Fill_17" class="st10" d="M30.5,16.3L29.2,9l2-0.4l1.3,7.3L30.5,16.3z"/>
					<path id="Fill_18" class="st10" d="M41.1,13.7l-2.7-7.3l1.9-0.7l2.7,7.3L41.1,13.7z"/>
				</g>
			</g>
		</g>
		<g id="Group_31" transform="translate(0.666)">
			<path id="Fill_20" class="st12" d="M33,45.6c-0.9-4.5-2.8-8.5-4.9-12.5c-2.4-4.5-3.4-9.6-2.9-14.7c0.2-3,1.4-5.8,3.3-8.1
				c2-2.3,4.8-3.7,6.2-6.7c0.8-1.6,3.1-1.6,4.8-1.4c4.3,0.5,8.3,1,12.4-1.3c2.2-1.2,5-0.4,7.4,0.2c1.9,0.5,3.9,1.6,3.9,3.9
				c0,2.6-1,4.7-3.8,5.4c-0.8-0.1-1.5-0.3-2.2-0.7c-1.4-0.9-2-0.3-2.4,1c-0.3,1.1-1.7,2.4,0.3,3.3c3.6,1.5,4.4,4.5,4.5,8
				c0,2.6-0.2,5.3-0.5,7.9c-0.2,2-1.2,4.2-0.5,5.8c0.9,2,3.8,0.6,5.6,1.6c3.2,5.1,2.8,6.5-2.9,8.7c-1.7,0.7-2.6,2.2-4.2,3
				c0.6-5.3-1.4-10.4-1.1-15.7c0.1-2.2,0.1-4.4-0.1-6.6c0-2.1-1.7-3.7-3.8-3.7c-0.1,0-0.1,0-0.2,0c-2.3,0.1-1.9,2.4-1.8,3.9
				c0.1,2.2,0.3,4.4,0.3,6.6c-0.2,5.6-2.2,7.9-7.8,9c-1.3,0.3-2.6,0.5-3.9,0.6C36.7,43.2,34.5,44,33,45.6"/>
			<g id="Group_24" transform="translate(125.15 47.466)">
				<path id="Clip_23-2" class="st5" d="M0.6,0.1h34v35.3h-34V0.1z"/>
				<g>
					<defs>
						<rect id="SVGID_5_" x="0.6" y="0.1" width="34" height="35.3"/>
					</defs>
					<clipPath id="SVGID_6_">
						<use xlink:href="#SVGID_5_"  style="overflow:visible;"/>
					</clipPath>
					<g id="Group_24-2" class="st13">
						<path id="Fill_22" class="st8" d="M8.5,35.4c-0.7-3.5-3.3-5.6-5.7-7.8c-0.8-0.8-2.2-1.1-2.2-2.6c1-1,2.1-2,3.2-2.8
							c2.8-1.8,5-4.4,6-7.6c1.1-3.5,0.4-7.3,1.9-10.7c0.3-0.7,0.8-1.4,1.6-1.3c0.5,0.1,0.8,0.4,1,0.9c0.1,0.4,0.2,0.9,0.1,1.3
							c0,0.8,0,1.6,0,2.3c-0.1,1,0.1,2.1,0.7,2.9c0.6,0.6,1.3,0.9,2.1,0.8c4.3-0.3,8.3-4.4,9.9-8.1c0.5-1.2,0.9-2.9,2.6-2.4
							c1.6,0.5,1.1,2.2,0.9,3.5c-0.2,1.6-0.7,3.1-1.2,4.9c2-0.7,1.7-2.4,2.3-3.6c0.4-0.9,0.7-2.1,2-1.8c1.1,0.2,0.9,1.3,0.9,2.2
							c0.4,7.7-2,13.8-9.1,17.7c-3.5,1.9-6.8,4-10.4,5.7C12.2,30.1,11.2,33.6,8.5,35.4"/>
					</g>
				</g>
			</g>
			<path id="Fill_25" class="st8" d="M33,45.6c1.5-1.6,3.7-2.4,5.9-2.2c1.3-0.1,2.6-0.3,3.9-0.6c5.6-1.1,7.5-3.4,7.8-9
				c0.1-2.2-0.1-4.4-0.3-6.6c-0.1-1.5-0.5-3.8,1.8-3.9c2.1-0.1,3.8,1.4,3.9,3.5c0,0.1,0,0.1,0,0.2c0.2,2.2,0.2,4.4,0.1,6.6
				c-0.2,5.3,1.8,10.4,1.1,15.7c-0.6,4.6-4.2,8.2-8.8,8.9c-3.6,0.4-7.2-0.4-10.4-2.1c-0.9-0.4-1.8-1-2.5-1.7c-1.1-1.3-1.8-2.9-2-4.5
				C33.3,48.4,33.1,47,33,45.6"/>
			<path id="Fill_27" class="st8" d="M64.3,37.5c-1.8-1-4.7,0.5-5.6-1.6c-0.7-1.6,0.2-3.9,0.5-5.8c0.4-2.6,0.6-5.3,0.5-7.9
				c-0.1-3.6-0.9-6.5-4.5-8c-2.1-0.9-0.7-2.2-0.3-3.3c0.4-1.3,1-1.9,2.4-1c0.7,0.3,1.4,0.5,2.2,0.7c3.6,5,3.8,11,5.3,16.6
				C65.8,30.5,65,34,64.3,37.5"/>
			<path id="Fill_29" class="st2" d="M20.7,145c-3.4-1.9-5.1-5.4-7.3-8.3c-3.7-4.9-7.2-10-11.1-14.8c-2.2-2.7-2.4-5.6-2.3-8.6
				c0.4-10.5,1-20.9,1.7-31.4c0.5-5.4,1.6-10.7,3.4-15.7c1.4-3.7,4-6.9,7.5-8.8c2-1.2,4.7-1.4,7-1.9c2.7-0.5,5.4-0.9,8.1-1.1
				c0.6,0,1.2-0.2,1.8-0.5c1.5-1,1.6-3.4,2.4-4.9c0.2-0.3,0.4-0.7,0.7-0.9c0.6-0.4,1.3-0.5,2-0.5c1.7,0,3.5-0.2,5.2-0.2
				c3.6-0.3,7.2,0.2,10.7,1.3l3.3,1.1c2.7,0.9,3.3,3.3,6,3.5c4.7,0.4,11.2-0.7,15.3,1.7c5.3,3,9.9,7.2,14.8,10.7
				c6.5,4.7,13.7,8.5,20.5,12.6c0.3,0.2,0.7,0.4,1.1,0.4c0.4,0,0.8-0.1,1.1-0.3c3-1.4,5.7-3.6,8.7-4.9c2.2-0.9,4.2-2,6.2-0.2
				c1.7,1.6,3.4,3.2,5,4.9c0.6,0.6,1.1,1.2,1.6,2c0.4,0.7,0.5,1.6,0.2,2.4c-1.1,2.7-2.8,4-4.9,5.9c-2.3,2.1-4.6,4.3-7,6.3
				c-2.2,2-4.6,3.7-7.1,5.1c-2.7,1.4-5.7,2.3-8.7,1.5c-3.3-0.9-6.6-1.4-9.9-2.2c-6.7-1.6-13.4-3.6-20-5.7c-2.7-0.9-2.7,0.1-2.4,2.2
				c1.6,10.9,2.1,21.9,1.6,32.8c0,2.3-0.5,4.6-1.5,6.8c-0.5,1.1-1.1,2-2,2.9c-0.9,0.8-2.5,1.1-3.6,1.5c-2.6,1-5.2,1.9-7.9,2.6
				c-5.3,1.5-10.7,2.3-16.2,2.3c-3.4,0-6.8-0.3-10.1-0.7c-1-0.1-1.9-0.3-2.8-0.7c-0.1,0-0.2-0.1-0.3-0.2c0-0.1-0.1-0.3,0-0.4
				c0.3-1.7,1.5-2.2,0.8-4.1c-1.7-4.7-1.9-9.7-3.4-14.4c-1.4-4.5-4-8.5-6-12.8c-1-2.3-1.7-4.7-2.2-7.2c-0.6-2.5-1.2-4.9-1.6-7.4
				c0.2,2.9,0.2,5.9,0,8.8c-0.3,2.8-0.7,5.7,0.3,8.4c1.4,3.8,2.9,7.6,4,11.6c0,2,1.7,4.5,2.5,6.3c0.9,2.2,1.8,4.4,2.8,6.6
				c0.2,0.3,0.1,0.8-0.2,1c0,0,0,0-0.1,0c-1,1.1-2.2,2.2-3.4,3.1C23.6,143.6,22,144,20.7,145"/>
		</g>
	</g>
</g>
</svg>
