<svg xmlns="http://www.w3.org/2000/svg" width="23.333" height="22.762" viewBox="0 0 23.333 22.762" fill="#464646">
  <g id="Icon" transform="translate(-0.333 -0.325)">
    <path id="Icon_Shape" data-name="Icon Shape" d="M11.667,22.762c-3.764,0-4.247,0-5.752-.08A7.767,7.767,0,0,1,3.279,22.2a4.586,4.586,0,0,1-1.645-1.035A4.43,4.43,0,0,1,.572,19.575a7.629,7.629,0,0,1-.49-2.583C0,15.523,0,15.052,0,11.38S0,7.239.082,5.77A7.254,7.254,0,0,1,.572,3.2,4.614,4.614,0,0,1,3.279.558,7.767,7.767,0,0,1,5.915.08C7.42,0,7.9,0,11.667,0s4.246,0,5.752.08a7.767,7.767,0,0,1,2.636.478A4.614,4.614,0,0,1,22.762,3.2a7.254,7.254,0,0,1,.49,2.572c.082,1.469.082,1.94.082,5.611s0,4.143-.082,5.612a7.313,7.313,0,0,1-.49,2.583A4.461,4.461,0,0,1,21.7,21.169,4.586,4.586,0,0,1,20.055,22.2a7.767,7.767,0,0,1-2.636.478C15.913,22.762,15.429,22.762,11.667,22.762ZM8.1,3.016a6.819,6.819,0,0,0-2.111.4A4.156,4.156,0,0,0,4.5,4.348a4.028,4.028,0,0,0-1,1.49A6.079,6.079,0,0,0,3.1,7.9v6.965a6.079,6.079,0,0,0,.4,2.06,4.005,4.005,0,0,0,.957,1.445,4.142,4.142,0,0,0,1.528.978,6.819,6.819,0,0,0,2.111.4h7.141a6.829,6.829,0,0,0,2.111-.4,4.469,4.469,0,0,0,2.485-2.424,6.36,6.36,0,0,0,.455-2.048v-.012c.015-.4.008-.654-.006-1.07v-.087c-.016-.471-.038-1.117-.038-2.325V7.9a6.393,6.393,0,0,0-.409-2.06,3.968,3.968,0,0,0-.957-1.445,4.142,4.142,0,0,0-1.528-.978,6.829,6.829,0,0,0-2.111-.4Zm7.07,15.25h-7a5.076,5.076,0,0,1-1.552-.3,2.741,2.741,0,0,1-1.645-1.6,4.735,4.735,0,0,1-.3-1.571V7.967A4.73,4.73,0,0,1,4.911,6.4,2.75,2.75,0,0,1,6.557,4.848a4.769,4.769,0,0,1,1.61-.3h7.079a4.777,4.777,0,0,1,1.531.251,2.744,2.744,0,0,1,1.645,1.6V6.4a4.213,4.213,0,0,1,.3,1.571V14.8a4.445,4.445,0,0,1-.3,1.571,2.741,2.741,0,0,1-1.645,1.6A4.769,4.769,0,0,1,15.167,18.266ZM11.678,7.033a4.533,4.533,0,0,0-1.7.33A4.335,4.335,0,0,0,7.222,11.38a4.254,4.254,0,0,0,1.3,3.073,4.471,4.471,0,0,0,3.147,1.274h.012a4.447,4.447,0,0,0,4.114-2.676,4.256,4.256,0,0,0-.958-4.742A4.487,4.487,0,0,0,11.678,7.033ZM16.333,5.85a1.022,1.022,0,0,0,0,2.037,1.022,1.022,0,0,0,0-2.037ZM11.667,14.2a2.824,2.824,0,1,1,0-5.646,2.912,2.912,0,0,1,2.046.827,2.806,2.806,0,0,1,.848,2A2.862,2.862,0,0,1,11.667,14.2Z" transform="translate(0.333 0.325)"/>
  </g>
</svg>
