<svg xmlns="http://www.w3.org/2000/svg" xmlns:xlink="http://www.w3.org/1999/xlink" width="1962.398" height="1558.626" viewBox="0 0 1962.398 1558.626">
  <defs>
    <linearGradient id="linear-gradient" x1="0.297" y1="1" x2="0.297" y2="0.625" gradientUnits="objectBoundingBox">
      <stop offset="0" stop-color="#ffe4cd"/>
      <stop offset="1" stop-color="#ffb092"/>
    </linearGradient>
    <linearGradient id="linear-gradient-2" x1="0.337" y1="1" x2="0.369" y2="0.588" gradientUnits="objectBoundingBox">
      <stop offset="0" stop-color="#ffc4ba"/>
      <stop offset="1" stop-color="#ffa59a"/>
    </linearGradient>
  </defs>
  <g id="Group_8_Copy" data-name="Group 8 Copy" transform="translate(2101.653 1361.964) rotate(163)">
    <path id="Fill_1" data-name="Fill 1" d="M205.234,1251.5c114.478,75.458,230.2,12.735,435.523,10.688,202.664-2.021,361.75-28.486,473.6-84.44,94.1-47.072,108.631-95.536,194.481-177.408s178.14-133,171.744-246.266c-9.621-170.475-91.4-181.086-150.1-320.392s-7.276-351.767-198.922-411.631C882.262-55.829,564.842,88.62,379.434,205.627S41.8,362.616,8.368,509.057C-26.624,662.332,57.383,746.1,90.077,836.563c65.108,180.169-44.04,310.009,115.156,414.939" transform="matrix(0.891, 0.454, -0.454, 0.891, 672.644, 0)" fill="#ffab95" opacity="0.149"/>
    <path id="Fill_4" data-name="Fill 4" d="M225.536,1066.141c169.931,138.408,330.95,116.945,531.023,122.907s249.479,65.667,361.235,33.486,100.781-128.569,180.077-195.143,216.31-70.636,227.124-217.99c5.355-72.952,44.073-215.371-17.134-343-87.738-182.941-215.471-170.2-249.734-231.325-51.42-91.733-92.192-191.1-264.424-223.346C780.694-28.154,562.124,39.1,387.667,131.5S97.062,188.916,21.7,298.89c-58.758,85.749,19.623,205.847,26.943,331.048s-21.956,274.243,176.893,436.2" transform="matrix(0.998, 0.07, -0.07, 0.998, 85.94, 195.196)" fill="url(#linear-gradient)"/>
    <path id="Fill_6" data-name="Fill 6" d="M746.973,1135c-229.5,0-331.166-84.274-471.213-188.294S63.579,838.734,14.8,757.1s38.538-139.577,40.186-226.48S33.627,334.171,148.491,230.7,335.074,122.429,480.064,76.345s392.124-118.5,627.728-44.769S1378,264.636,1419.191,420.014s90.615,209.36,62.609,325.233-144.99,117.189-253.733,196.191S1015.53,1135,746.973,1135" transform="translate(223.697 345.692)" opacity="0.904" fill="url(#linear-gradient-2)"/>
  </g>
</svg>
