<svg id="Rectangle" xmlns="http://www.w3.org/2000/svg" xmlns:xlink="http://www.w3.org/1999/xlink" width="56" height="53" viewBox="0 0 56 53">
  <defs>
    <linearGradient id="linear-gradient" x1="0.257" y1="0.112" x2="0.619" y2="1" gradientUnits="objectBoundingBox">
      <stop offset="0" stop-color="#fb8177"/>
      <stop offset="1" stop-color="#f73b73"/>
    </linearGradient>
    <clipPath id="clip-path">
      <path id="Mask" d="M29.694,1.044,36.01,13.735A5.64,5.64,0,0,0,40.258,16.8l14.123,2.035a1.869,1.869,0,0,1,1.046,3.2L45.209,31.9a5.569,5.569,0,0,0-1.623,4.953L46,50.806a1.886,1.886,0,0,1-2.741,1.974L30.626,46.2a5.686,5.686,0,0,0-5.251,0L12.743,52.781A1.886,1.886,0,0,1,10,50.806l2.412-13.948A5.567,5.567,0,0,0,10.792,31.9L.572,22.026a1.869,1.869,0,0,1,1.047-3.2L15.742,16.8a5.641,5.641,0,0,0,4.249-3.061L26.306,1.044a1.9,1.9,0,0,1,3.387,0" opacity="0.8" fill="url(#linear-gradient)"/>
    </clipPath>
  </defs>
  <path id="Mask-2" data-name="Mask" d="M29.694,1.044,36.01,13.735A5.64,5.64,0,0,0,40.258,16.8l14.123,2.035a1.869,1.869,0,0,1,1.046,3.2L45.209,31.9a5.569,5.569,0,0,0-1.623,4.953L46,50.806a1.886,1.886,0,0,1-2.741,1.974L30.626,46.2a5.686,5.686,0,0,0-5.251,0L12.743,52.781A1.886,1.886,0,0,1,10,50.806l2.412-13.948A5.567,5.567,0,0,0,10.792,31.9L.572,22.026a1.869,1.869,0,0,1,1.047-3.2L15.742,16.8a5.641,5.641,0,0,0,4.249-3.061L26.306,1.044a1.9,1.9,0,0,1,3.387,0" opacity="0.8" fill="url(#linear-gradient)"/>
  <g id="Rectangle-2" data-name="Rectangle" clip-path="url(#clip-path)">
    <rect id="Rectangle-3" data-name="Rectangle" width="39" height="71" transform="translate(37 -3)" fill="#d8d8d8"/>
  </g>
</svg>
